HIERARCHY
ROOT Hips
{
	OFFSET -3.958830 18.904000 13.208200
	CHANNELS 6 Xposition Yposition Zposition Zrotation Yrotation Xrotation 
	JOINT LHipJoint
	{
		OFFSET 0.000000 0.000000 0.000000
		CHANNELS 3 Zrotation Yrotation Xrotation
		JOINT LeftUpLeg
		{
			OFFSET 1.800000 -1.400000 0.085000
			CHANNELS 3 Zrotation Yrotation Xrotation
			JOINT LeftLeg
			{
				OFFSET 2.215000 -6.000000 0.000000
				CHANNELS 3 Zrotation Yrotation Xrotation
				JOINT LeftFoot
				{
					OFFSET 2.500000 -6.900000 0.000000
					CHANNELS 3 Zrotation Yrotation Xrotation
					JOINT LeftToeBase
					{
						OFFSET 0.200000 -0.500000 1.950000
						CHANNELS 3 Zrotation Yrotation Xrotation
						End Site
						{
							OFFSET 0.000000 0.000000 0.000000
						}
					}
				}
			}
		}
	}
	JOINT RHipJoint
	{
		OFFSET 0.000000 0.000000 0.000000
		CHANNELS 3 Zrotation Yrotation Xrotation
		JOINT RightUpLeg
		{
			OFFSET -1.800000 -1.400000 0.085000
			CHANNELS 3 Zrotation Yrotation Xrotation
			JOINT RightLeg
			{
				OFFSET -2.215000 -6.000000 0.000000
				CHANNELS 3 Zrotation Yrotation Xrotation
				JOINT RightFoot
				{
					OFFSET -2.500000 -6.900000 0.000000
					CHANNELS 3 Zrotation Yrotation Xrotation
					JOINT RightToeBase
					{
						OFFSET -0.200000 -0.500000 1.950000
						CHANNELS 3 Zrotation Yrotation Xrotation
						End Site
						{
							OFFSET 0.000000 0.000000 0.000000
						}
					}
				}
			}
		}
	}
	JOINT LowerBack
	{
		OFFSET 0.000000 0.000000 0.000000
		CHANNELS 3 Zrotation Yrotation Xrotation
		JOINT Spine
		{
			OFFSET -0.087000 1.940000 -0.288900
			CHANNELS 3 Zrotation Yrotation Xrotation
			JOINT Spine1
			{
				OFFSET 0.000000 1.950000 0.060000
				CHANNELS 3 Zrotation Yrotation Xrotation
				JOINT Neck
				{
					OFFSET 0.000000 0.000000 0.000000
					CHANNELS 3 Zrotation Yrotation Xrotation
					JOINT Neck1
					{
						OFFSET 0.000000 1.600000 0.340000
						CHANNELS 3 Zrotation Yrotation Xrotation
						JOINT Head
						{
							OFFSET 0.000000 1.667000 -0.240000
							CHANNELS 3 Zrotation Yrotation Xrotation
							End Site
							{
								OFFSET 0.000000 0.000000 0.000000
							}
						}
					}
				}
				JOINT LeftShoulder
				{
					OFFSET 0.000000 0.000000 0.000000
					CHANNELS 3 Zrotation Yrotation Xrotation
					JOINT LeftArm
					{
						OFFSET 2.700000 1.550000 -0.730000
						CHANNELS 3 Zrotation Yrotation Xrotation
						JOINT LeftForeArm
						{
							OFFSET 5.450000 0.000000 0.000000
							CHANNELS 3 Zrotation Yrotation Xrotation
							JOINT LeftHand
							{
								OFFSET 3.450000 0.000000 0.000000
								CHANNELS 3 Zrotation Yrotation Xrotation
								JOINT LeftHandIndex1
								{
									OFFSET 0.750000 0.000000 0.000000
									CHANNELS 3 Zrotation Yrotation Xrotation
									End Site
									{
										OFFSET 0.000000 0.000000 0.000000
									}
								}
							}
						}
					}
				}
				JOINT RightShoulder
				{
					OFFSET 0.000000 0.000000 0.000000
					CHANNELS 3 Zrotation Yrotation Xrotation
					JOINT RightArm
					{
						OFFSET -2.700000 1.550000 -0.730000
						CHANNELS 3 Zrotation Yrotation Xrotation
						JOINT RightForeArm
						{
							OFFSET -5.450000 0.000000 0.000000
							CHANNELS 3 Zrotation Yrotation Xrotation
							JOINT RightHand
							{
								OFFSET -3.450000 0.000000 0.000000
								CHANNELS 3 Zrotation Yrotation Xrotation
								JOINT RightHandIndex1
								{
									OFFSET -0.750000 0.000000 0.000000
									CHANNELS 3 Zrotation Yrotation Xrotation
									End Site
									{
										OFFSET 0.000000 0.000000 0.000000
									}
								}
							}
						}
					}
				}
			}
		}
	}
}
MOTION
Frames: 7
Frame Time: 0.016667
-1.322080 17.638570 0.805390 -14.657729 -3.032669 -30.145803 -15.428060 14.137840 2.881649 17.276053 -5.442387 -9.437564 -1.120349 13.244589 57.078003 0.217433 11.263866 0.479958 0.147690 0.043000 0.010120 18.009066 -8.929233 4.107961 -4.312986 9.202557 -38.347624 9.125213 -8.767650 36.658892 -0.713939 -4.885389 2.412289 0.055260 0.445500 0.257410 -2.759417 -4.880600 -8.590408 2.655099 -3.537885 47.346219 -1.012619 -0.908144 18.180508 1.255302 -1.352177 -18.674609 -11.875463 10.371218 59.673348 1.885110 5.182270 -21.978040 -22.750518 -38.220668 8.390021 -21.961846 -25.780181 -15.852619 -15.275997 -49.269061 1.352015 -3.032961 3.003074 1.100810 -0.003220 0.267730 0.056590 20.171335 36.937939 14.709710 33.362039 9.241015 -19.710369 73.430282 80.538921 38.084541 1.535410 -1.323094 -0.459550 0.701570 0.476550 -0.149490 
-1.272580 17.676960 0.796690 -16.109254 -2.832003 -31.158536 -15.364530 14.046407 2.582359 18.125299 -4.835192 -7.653278 -0.021393 12.510519 55.598328 0.147877 10.947500 0.568175 0.184160 0.092030 0.019350 18.110604 -8.665010 4.622941 -8.791986 9.822577 -44.047974 11.643723 -10.109867 38.585059 -0.820849 -5.528691 2.138795 0.082520 0.429700 0.283790 -2.988336 -4.749142 -8.654785 6.426152 -5.547923 48.907985 -1.654203 -2.215812 18.574667 1.477440 -1.581134 -19.236194 -12.758664 10.669445 60.487959 2.199270 4.557640 -22.658430 -20.619810 -40.529399 8.059462 -18.985207 -30.491702 -15.571496 -15.119511 -48.789255 1.961227 -2.970115 3.058139 1.088560 -0.015610 0.288070 0.059830 17.650174 38.450756 14.243173 27.793943 13.117205 -17.832137 77.919964 84.307324 43.893227 1.811208 -1.009878 -0.425900 0.685740 0.469670 -0.130540 
-1.210100 17.708250 0.783130 -17.746843 -3.576456 -31.827842 -15.283706 13.745792 2.213721 19.518738 -3.777633 -6.197661 0.799732 12.240554 54.214959 0.092085 10.737701 0.638718 0.193220 0.106980 -0.000560 18.291464 -8.260865 5.367034 -14.675298 10.979015 -50.562835 14.821796 -12.828903 43.565901 -1.079279 -6.953537 1.654582 0.091970 0.447210 0.299390 -3.344421 -4.371190 -8.779750 11.768435 -8.258883 50.468503 -3.241444 -3.508149 17.936937 2.011821 -2.103112 -19.512971 -14.330615 11.114890 60.957490 2.205540 3.528850 -23.328150 -17.962323 -42.903657 7.233123 -15.893437 -33.653410 -15.387857 -15.277298 -48.740719 2.581231 -2.948212 3.097446 1.087100 -0.013660 0.291160 0.070500 13.976467 40.507760 13.272405 21.559582 15.957940 -19.044853 71.828392 85.533845 42.269104 1.168506 -1.765510 -0.414960 0.701640 0.480250 -0.107940 
-1.157570 17.741220 0.784120 -19.085406 -3.796439 -32.049365 -15.248418 13.374948 1.851975 20.641085 -2.816636 -5.288426 1.244713 12.104957 52.751613 0.021152 10.554829 0.700551 0.176890 0.051050 -0.001940 18.468733 -7.782125 6.120919 -21.698105 11.179260 -57.128494 16.528369 -17.595929 53.424076 -1.572503 -9.374904 0.891599 0.065560 0.452290 0.322450 -3.639743 -4.083906 -8.963243 16.707025 -10.794568 51.357985 -4.764897 -4.755511 15.883609 2.651274 -2.221880 -18.984185 -14.990108 11.401026 62.305453 2.002660 2.894470 -23.660730 -15.420614 -44.869825 5.947553 -13.818815 -36.367591 -13.746866 -11.978574 -47.254273 1.759533 -3.086090 3.046057 1.123550 -0.021660 0.291850 0.061830 10.089545 42.057374 11.486396 16.529052 18.120925 -21.232417 57.574420 84.873131 34.089474 1.009721 -1.988062 -0.428370 0.696790 0.505380 -0.118960 
-1.083430 17.801370 0.755700 -21.036101 -4.326148 -31.451398 -15.138317 12.901670 1.470862 21.616745 -2.076146 -5.189698 2.322933 11.390317 51.312826 -0.063184 10.214332 0.815952 0.198590 0.081690 -0.011900 18.715703 -7.502451 6.825284 -28.393196 10.235189 -62.879088 20.201722 -22.153862 57.569192 -1.929134 -10.957175 0.448288 0.089280 0.467110 0.328310 -4.142439 -3.300171 -9.036599 23.581683 -14.521135 50.482549 -7.668688 -6.391212 15.176161 3.326773 -2.453922 -17.738329 -15.258505 11.062730 61.205451 1.490260 1.954080 -23.606550 -11.549855 -47.784115 3.646774 -10.488019 -36.573946 -13.639777 -8.782553 -46.658331 0.568308 -3.241118 3.121705 1.088970 -0.005280 0.276090 0.084580 4.560815 43.785607 9.027374 10.967445 19.769404 -23.205400 35.320111 83.716043 18.815061 1.073425 -1.756413 -0.414820 0.697320 0.492340 -0.098340 
-1.020100 17.903640 0.726890 -22.688592 -4.193710 -31.166195 -15.078481 12.633465 1.112538 21.922673 -1.461505 -4.762003 3.920603 10.121915 49.307044 -0.224553 9.743258 0.974445 0.233630 0.106110 0.004440 18.880702 -7.306831 7.348747 -34.280710 8.402296 -66.457156 24.313961 -26.302235 59.218487 -2.206999 -12.063377 0.166165 0.124130 0.475970 0.343250 -4.457870 -2.810558 -9.043292 29.214269 -17.522811 49.521837 -9.772793 -7.793928 15.021962 3.994237 -2.123674 -16.145568 -14.214984 10.061208 59.913931 0.576380 1.187110 -24.171840 -6.707863 -50.261511 0.536700 -7.511559 -36.076738 -13.544583 -6.821503 -46.378646 -0.292183 -3.418186 3.216500 1.085060 0.018070 0.262180 0.101920 -1.967800 44.670332 6.758504 5.487333 19.601545 -25.020453 16.493992 83.909717 5.879749 0.995493 -1.577203 -0.421780 0.703150 0.484440 -0.106890 
-0.964400 18.045110 0.703870 -24.592999 -3.897208 -30.314729 -15.020504 12.317476 0.812499 22.897885 -1.090399 -4.597823 4.629301 9.201660 46.302786 -0.310769 9.162435 1.167679 0.232800 0.100500 -0.002690 19.044445 -7.132264 7.792583 -37.886134 6.577203 -70.544618 26.334619 -30.248677 61.977218 -2.454765 -13.086070 -0.077319 0.108840 0.467880 0.351550 -4.774182 -2.268987 -9.066697 35.035545 -21.210887 47.703597 -12.672741 -9.134783 14.449095 4.842256 -1.997248 -15.682742 -13.981402 9.778501 59.165832 0.495000 0.506530 -22.647800 -2.094108 -51.955410 -1.244611 -4.241473 -33.943657 -14.244768 -5.681223 -47.645167 -0.824882 -3.480793 3.417426 1.025980 0.031070 0.236530 0.101060 -8.654739 45.293605 4.251577 0.685726 19.571119 -26.290967 0.947566 83.776178 -4.794985 0.933964 -1.448617 -0.383790 0.646470 0.467070 -0.089800 
